Coordinates
version=1
nRows=24
nColumns=22
inDegrees=yes

Units are S.I. units (second, meters, Newtons, ...)
If the header above contains a line with 'inDegrees', this indicates whether rotational values are in degrees (yes) or radians (no).

endheader
time	pelvis_tilt	pelvis_list	pelvis_rotation	pelvis_tx	pelvis_ty	pelvis_tz	hip_flexion_r	hip_adduction_r	hip_rotation_r	knee_angle_r	ankle_angle_r	subtalar_angle_r	hip_flexion_l	hip_adduction_l	hip_rotation_l	knee_angle_l	ankle_angle_l	subtalar_angle_l	lumbar_extension	lumbar_bending	lumbar_rotation
      1.55000000	     -3.30565970	     -3.12734771	      3.53838855	      1.00134678	      1.01387099	      0.23121027	      9.14830439	      3.36164112	     -7.56722753	    -18.08075591	      8.24207472	     -3.08314726	      5.44827369	     -7.89689459	     -3.84610912	    -11.80499903	      7.90778462	      5.89308497	     -3.75088593	      0.27805569	     -1.63862840
      1.56000000	     -3.46285286	     -3.03168178	      3.78751402	      0.99901933	      1.01379628	      0.23214691	      9.53656801	      3.27536003	     -7.78798912	    -18.24074456	      8.17901657	     -3.24678774	      5.85666830	     -7.83757779	     -3.64124476	    -11.86291703	      7.70582325	      6.08880855	     -3.85036130	      0.24336147	     -1.66214127
      1.57000000	     -3.63168079	     -2.93313337	      4.06743877	      0.99659219	      1.01371838	      0.23304570	      9.91629313	      3.17658628	     -8.04603687	    -18.35360272	      8.10354353	     -3.38543930	      6.29850466	     -7.76806116	     -3.42150893	    -11.93378005	      7.48291084	      6.27986424	     -3.95294028	      0.20449628	     -1.67655433
      1.58000000	     -3.80455473	     -2.82674829	      4.39610890	      0.99404966	      1.01363648	      0.23385640	     10.29075079	      3.05602472	     -8.32971351	    -18.44684896	      8.03496837	     -3.48657329	      6.75952793	     -7.67547368	     -3.12509813	    -12.00037995	      7.24859971	      6.45718157	     -4.07054048	      0.16382515	     -1.72960028
      1.59000000	     -4.01180021	     -2.72820434	      4.76922584	      0.99139889	      1.01349410	      0.23457747	     10.69417933	      2.92419856	     -8.66603480	    -18.52038140	      7.96455940	     -3.58593823	      7.29424039	     -7.57718374	     -2.79745754	    -12.10410381	      7.03047366	      6.65625428	     -4.16188304	      0.13622611	     -1.80038705
      1.60000000	     -4.24368259	     -2.63523862	      5.19223561	      0.98865309	      1.01330393	      0.23520825	     11.11479788	      2.77919950	     -9.04686258	    -18.57641384	      7.89704350	     -3.67565332	      7.89282781	     -7.46818670	     -2.41486977	    -12.24714809	      6.83532301	      6.87925901	     -4.23669145	      0.11663838	     -1.89658588
      1.61000000	     -4.51269611	     -2.55285425	      5.65685580	      0.98579186	      1.01304360	      0.23574915	     11.57044568	      2.62434288	     -9.46300473	    -18.61766809	      7.82300100	     -3.76384963	      8.58422796	     -7.35262040	     -2.00001570	    -12.46208819	      6.68584523	      7.15455049	     -4.28133422	      0.10955350	     -2.00763920
      1.62000000	     -4.76582097	     -2.47307675	      6.17942772	      0.98282829	      1.01279741	      0.23614972	     12.00417348	      2.44934908	     -9.92920665	    -18.65221007	      7.77382840	     -3.82281152	      9.28957649	     -7.21422094	     -1.44628437	    -12.70954851	      6.56110668	      7.43483515	     -4.35711630	      0.11277094	     -2.14427053
      1.63000000	     -5.04999099	     -2.40677972	      6.73910657	      0.97973197	      1.01248182	      0.23644811	     12.47656428	      2.26468043	    -10.42232772	    -18.68926542	      7.71115232	     -3.88110983	     10.09735384	     -7.06654400	     -0.85922281	    -13.06917808	      6.50949021	      7.79301983	     -4.40820005	      0.13270963	     -2.29623992
      1.64000000	     -5.36512604	     -2.35149993	      7.31504747	      0.97650778	      1.01209719	      0.23668115	     12.98710992	      2.07381072	    -10.90443940	    -18.72660358	      7.62968179	     -3.94618700	     11.00879757	     -6.90920613	     -0.27521116	    -13.56062974	      6.56920419	      8.29300713	     -4.43119070	      0.15928584	     -2.44323238
      1.65000000	     -5.64675487	     -2.30077339	      7.92379403	      0.97318850	      1.01174945	      0.23677997	     13.46972902	      1.86654433	    -11.42212210	    -18.77839151	      7.56373271	     -3.99838805	     11.92897392	     -6.73074418	      0.37518383	    -14.14914138	      6.70311821	      8.84033218	     -4.49866554	      0.20260418	     -2.59261314
      1.66000000	     -5.90808345	     -2.25351615	      8.54603339	      0.96978052	      1.01141558	      0.23680307	     13.94229406	      1.64768691	    -11.95030280	    -18.84985781	      7.50152744	     -4.04965098	     12.87933533	     -6.53654249	      1.01229694	    -14.87124642	      6.94003658	      9.46288860	     -4.59015181	      0.25026693	     -2.73310748
      1.67000000	     -6.14515707	     -2.20572051	      9.17394358	      0.96631182	      1.01111761	      0.23676692	     14.39068369	      1.41867595	    -12.47094579	    -18.92374619	      7.43675530	     -4.10125272	     13.85040094	     -6.32712933	      1.58599169	    -15.74358796	      7.27014983	     10.13510902	     -4.70240425	      0.29658504	     -2.86622052
      1.68000000	     -6.34754095	     -2.15195820	      9.80262248	      0.96282440	      1.01088613	      0.23669521	     14.79539128	      1.18007299	    -12.98317974	    -18.98867315	      7.36789185	     -4.14969375	     14.82059689	     -6.10554003	      2.05471481	    -16.77708146	      7.67163559	     10.78072478	     -4.83988921	      0.33273390	     -2.99569549
      1.69000000	     -6.50795122	     -2.09092797	     10.40414493	      0.95933202	      1.01072888	      0.23665793	     15.16521144	      0.93801733	    -13.47660768	    -19.07418192	      7.29582281	     -4.19823976	     15.77196459	     -5.89016285	      2.35455788	    -17.98813026	      8.15514212	     11.36736188	     -5.00877193	      0.35056203	     -3.08500708
      1.70000000	     -6.62478038	     -2.01535127	     10.95546661	      0.95588090	      1.01066419	      0.23670378	     15.49076746	      0.69591891	    -13.92513739	    -19.16716902	      7.20625851	     -4.24397459	     16.68980969	     -5.69481145	      2.42600419	    -19.39052816	      8.70098306	     11.84267983	     -5.20385944	      0.33766748	     -3.11482207
      1.71000000	     -6.69284458	     -1.92297745	     11.44725169	      0.95249801	      1.01070782	      0.23683935	     15.76312040	      0.45683209	    -14.32025487	    -19.26393991	      7.10257089	     -4.27980433	     17.55625957	     -5.53243281	      2.26909042	    -20.99015333	      9.28255175	     12.11862115	     -5.42667721	      0.29478214	     -3.08559850
      1.72000000	     -6.71819840	     -1.81703415	     11.87508195	      0.94921964	      1.01085712	      0.23710565	     15.97143387	      0.23472940	    -14.63992035	    -19.32925640	      6.98654179	     -4.29517038	     18.36553748	     -5.42330125	      1.89544671	    -22.78455786	      9.86720174	     12.13596368	     -5.66126985	      0.21886429	     -3.01147456
      1.73000000	     -6.71282165	     -1.69851006	     12.21456238	      0.94603646	      1.01108767	      0.23753416	     16.14743755	      0.02955468	    -14.88189798	    -19.39500905	      6.84451046	     -4.28772215	     19.11072538	     -5.38178054	      1.33230695	    -24.75547119	     10.42331659	     11.92170719	     -5.89504902	      0.10776121	     -2.85913961
      1.74000000	     -6.70034471	     -1.57423992	     12.45743266	      0.94292435	      1.01135919	      0.23814711	     16.32106542	     -0.15359565	    -15.04096545	    -19.46059594	      6.67556334	     -4.24995637	     19.80260435	     -5.41220936	      0.65796099	    -26.88135823	     10.90917912	     11.46916451	     -6.10065206	     -0.03725056	     -2.63227061
      1.75000000	     -6.67634894	     -1.44652934	     12.60461352	      0.93989831	      1.01167324	      0.23889650	     16.47652551	     -0.31105959	    -15.10642585	    -19.50741087	      6.49294451	     -4.17227925	     20.41727442	     -5.51028967	     -0.06894418	    -29.12421949	     11.32720459	     10.84167009	     -6.27675660	     -0.20335409	     -2.34132656
      1.76000000	     -6.65602856	     -1.31416826	     12.66050682	      0.93690467	      1.01199253	      0.23975200	     16.64821668	     -0.45590353	    -15.09993126	    -19.56683667	      6.30182741	     -4.04995842	     20.95988693	     -5.65009360	     -0.75780235	    -31.45170071	     11.65808123	     10.10342434	     -6.41535377	     -0.38945927	     -1.99180639
      1.77000000	     -6.64836108	     -1.18699767	     12.62911091	      0.93395263	      1.01229957	      0.24069432	     16.83221811	     -0.57761723	    -15.02362786	    -19.60828253	      6.10002771	     -3.88442391	     21.43395093	     -5.82470096	     -1.37355544	    -33.83120666	     11.90469641	      9.38743312	     -6.50187150	     -0.58721336	     -1.60393901
      1.78000000	     -6.65532421	     -1.06294447	     12.53173405	      0.93100965	      1.01257056	      0.24164701	     17.04335705	     -0.69195414	    -14.90511712	    -19.66156822	      5.90952738	     -3.67622171	     21.83908719	     -5.99947426	     -1.85589086	    -36.23051177	     12.07183893	      8.74005998	     -6.54011704	     -0.78751118	     -1.19304043
